<svg width="110" height="40" viewBox="0 0 110 40" fill="none" xmlns="http://www.w3.org/2000/svg">
<path d="M11.4155 9.33054C11.4155 6.93885 9.47662 5 7.08493 5C4.69324 5 2.75439 6.93885 2.75439 9.33054C2.75439 11.7222 4.69324 13.6611 7.08493 13.6611C9.47662 13.6611 11.4155 11.7222 11.4155 9.33054Z" fill="#2424FF"/>
<path d="M12.8949 21.4986C12.8949 14.7798 18.0707 9.98962 24.9927 9.98962C28.8589 9.98962 32.0393 11.3582 34.1595 13.9089L30.8544 16.9572C29.3578 15.2153 27.487 14.3443 25.2421 14.3443C21.064 14.3443 18.1331 17.2682 18.1331 21.4363C18.1331 25.6044 21.064 28.5283 25.2421 28.5283C27.487 28.5283 29.3578 27.6573 30.8544 25.9155L34.1595 28.9638C32.0393 31.5144 28.8589 32.9453 24.9927 32.9453C18.0707 33.0074 12.8949 28.2172 12.8949 21.4986Z" fill="black" fill-opacity="0.9"/>
<path d="M52.618 25.7911H40.146C40.5826 27.844 42.3286 29.0882 44.8854 29.0882C46.6314 29.0882 47.8786 28.5905 49.0011 27.4707L51.5578 30.208C49.9988 31.9499 47.6916 32.883 44.7607 32.883C39.0236 32.883 35.3443 29.2748 35.3443 24.4224C35.3443 19.5078 39.1483 15.9618 44.1371 15.9618C49.0011 15.9618 52.7427 19.1967 52.7427 24.4846C52.7427 24.9201 52.6803 25.4178 52.618 25.7911ZM40.0836 23.0538H48.1904C47.8786 21.0008 46.2573 19.6322 44.1371 19.6322C42.0169 19.57 40.3955 20.9387 40.0836 23.0538Z" fill="black" fill-opacity="0.9"/>
<path d="M55.7983 9.92738H60.5376V32.9453H55.7983V9.92738Z" fill="black" fill-opacity="0.9"/>
<path d="M63.3438 31.2034L64.9651 27.7818C66.4618 28.715 68.7067 29.3993 70.7019 29.3993C72.885 29.3993 73.7579 28.8394 73.7579 27.9062C73.7579 25.2312 63.7803 27.9684 63.7803 21.3741C63.7803 18.2636 66.5865 16.024 71.4507 16.024C73.6954 16.024 76.2525 16.5217 77.8109 17.4548L76.19 20.8764C74.5683 19.9432 72.9474 19.6322 71.4507 19.6322C69.3301 19.6322 68.3949 20.3165 68.3949 21.1874C68.3949 23.987 78.3723 21.2497 78.3723 27.7818C78.3723 30.8301 75.5037 33.0075 70.5777 33.0075C67.6466 32.9452 64.8404 32.1987 63.3438 31.2034Z" fill="black" fill-opacity="0.9"/>
<path d="M81.1784 16.2106H85.9177V32.9453H81.1784V16.2106Z" fill="black" fill-opacity="0.9"/>
<path d="M105 23.3027V32.9453H100.51V30.6435C99.6368 32.1365 97.891 32.9453 95.4589 32.9453C91.5925 32.9453 89.2852 30.8301 89.2852 27.9684C89.2852 25.0445 91.3434 23.0538 96.3942 23.0538H100.198C100.198 21.0008 98.9513 19.8189 96.3942 19.8189C94.6484 19.8189 92.8401 20.3788 91.6549 21.3741L89.9091 18.0147C91.7174 16.7083 94.3986 16.024 97.0181 16.024C102.131 15.9618 105 18.3258 105 23.3027ZM100.261 27.5329V25.8532H96.9556C94.7109 25.8532 94.0246 26.662 94.0246 27.7818C94.0246 28.9638 95.0224 29.7725 96.7065 29.7725C98.3275 29.7725 99.6993 29.026 100.261 27.5329Z" fill="black" fill-opacity="0.9"/>
<path d="M83.6105 14.7798C84.9192 14.7798 85.9802 13.7214 85.9802 12.4158C85.9802 11.1102 84.9192 10.0518 83.6105 10.0518C82.3019 10.0518 81.2409 11.1102 81.2409 12.4158C81.2409 13.7214 82.3019 14.7798 83.6105 14.7798Z" fill="black" fill-opacity="0.9"/>
</svg>
